<svg width="298" height="157.50000000000003" xmlns="http://www.w3.org/2000/svg" xmlns:undefined="http://www.inkscape.org/namespaces/inkscape" version="1.1">
 <defs>
  <clipPath id="Clip0">
   <path id="svg_1" d="m-0.52734,-0.08854l266.00034,0l0,103.78154l-266.00034,0l0,-103.78154z"/>
  </clipPath>
 </defs>
 <g>
  <title>Layer 1</title>
  <g id="Hintergrund"  >
   <g fill="none" id="Gruppe1" clip-path="url(#Clip0)" clip-rule="evenodd" transform="translate(3.97526, 32.4219) scale(1, 1)">
    <path id="svg_2" fill-rule="nonzero" fill="#004e7c" d="m263.025,31.9115l-124.349,-31.13025c-4.177,-1.04167 -8.521,-1.04167 -12.61,0l-124.43709,31.13025c-2.17188,0.5208 -2.17188,3.651 0,4.1718l61.13019,15.3073c34.6094,-10.2604 71.8279,-10.7812 107.2189,-4.5208c-35.823,-4 -73.5626,-0.8698 -107.2189,12.0833l0,17.4792c0,1.4792 1.3958,2.4375 2.7865,2c19.8229,-6.0833 42.6094,-9.651 66.7814,-9.651c24.172,0 46.958,3.5677 66.87,9.651c1.39,0.4375 2.698,-0.5208 2.698,-2l0,-25.0417l26.692,-6.6979l0,46.7865l-0.432,0c-0.958,0 -1.74,0.7812 -1.74,1.7396l0,8.6042c0,0.958 0.782,1.74 1.74,1.74l5.213,0c0.959,0 1.74,-0.782 1.74,-1.74l0,-8.6042c0,-0.9584 -0.781,-1.7396 -1.74,-1.7396l-0.432,0l0,-47.8282l30.089,-7.5677c2.26,-0.5208 2.26,-3.651 0,-4.1718"/>
   </g>
   <path id="svg_3" fill-rule="nonzero" fill="#ec6421" d="m5.85401,156.7242c-0.94792,0 -1.82813,-0.0729 -2.64584,-0.2084c-0.82291,-0.1354 -1.53125,-0.3385 -2.125,-0.6041l0,-2.7292c0.66667,0.2812 1.38542,0.5 2.16667,0.6667c0.79167,0.1666 1.5625,0.25 2.3125,0.25c1.06771,0 1.85417,-0.0938 2.35417,-0.2917c0.5,-0.1927 0.75,-0.6458 0.75,-1.3542c0,-0.4427 -0.10417,-0.7916 -0.3125,-1.04163c-0.20834,-0.26042 -0.57813,-0.5 -1.10417,-0.70834c-0.53125,-0.20833 -1.28125,-0.4427 -2.25,-0.70833c-1.54167,-0.41667 -2.625,-0.94271 -3.25,-1.58333c-0.625,-0.65104 -0.9375,-1.54167 -0.9375,-2.66667c0,-1.35937 0.48958,-2.40625 1.47917,-3.14583c1,-0.73438 2.4427,-1.10417 4.33333,-1.10417c0.88542,0 1.71354,0.0625 2.47917,0.1875c0.76041,0.125 1.3802,0.27083 1.85413,0.4375l0,2.72917c-1.24997,-0.46875 -2.55726,-0.70834 -3.91663,-0.70834c-0.95834,0 -1.71875,0.10417 -2.27084,0.3125c-0.54166,0.19792 -0.8125,0.625 -0.8125,1.29167c0,0.375 0.09375,0.68229 0.29167,0.91667c0.19271,0.22396 0.53125,0.43229 1.02083,0.625c0.48438,0.18229 1.15625,0.38541 2.02084,0.60416c1.20833,0.32292 2.13541,0.70313 2.79166,1.14584c0.66667,0.44791 1.12497,0.95312 1.37497,1.52083c0.25,0.57292 0.375,1.2031 0.375,1.8958c0,1.2917 -0.4948,2.3282 -1.47913,3.1042c-0.97396,0.7812 -2.47396,1.1667 -4.5,1.1667"/>
   <path id="svg_4" fill-rule="nonzero" fill="#ec6421" d="m21.17973,156.7242c-2.47396,0 -4.36979,-0.6667 -5.6875,-2c-1.30729,-1.3438 -1.95833,-3.1719 -1.95833,-5.4792c0,-2.44271 0.63542,-4.34375 1.91667,-5.70833c1.27604,-1.35938 3.17708,-2.04167 5.70833,-2.04167c0.88542,0 1.6875,0.07292 2.3958,0.20833c0.7188,0.125 1.3959,0.30209 2.0209,0.52084l0,2.70833c-1.3073,-0.52604 -2.70316,-0.79167 -4.18753,-0.79167c-1.6823,0 -2.89063,0.42709 -3.625,1.27084c-0.72396,0.83333 -1.08334,2.11458 -1.08334,3.83333c0,3.2396 1.58854,4.8542 4.77084,4.8542c0.70833,0 1.41666,-0.0625 2.12503,-0.1875c0.7083,-0.125 1.3802,-0.3177 2.0208,-0.5834l0,2.7292c-0.625,0.1979 -1.3021,0.3542 -2.0208,0.4792c-0.70837,0.125 -1.51045,0.1875 -2.39587,0.1875"/>
   <path id="svg_5" fill-rule="nonzero" fill="#ec6421" d="m27.7454,156.4948l0,-14.7708l3.08333,0l0,6.1875l6.45834,0l0,-6.1875l3.08333,0l0,14.7708l-3.08333,0l0,-6.18747l-6.45834,0l0,6.18747l-3.08333,0"/>
   <path id="svg_6" fill-rule="nonzero" fill="#ec6421" d="m46.00923,140.14l0,-2.25l2.4375,0l0,2.25l-2.4375,0m4.5,0l0,-2.25l2.43747,0l0,2.25l-2.43747,0m-1.04166,16.5833c-2.03125,0 -3.64063,-0.4895 -4.83334,-1.4791c-1.18229,-0.9844 -1.77083,-2.4167 -1.77083,-4.2917l0,-9.22917l3.10417,0l0,8.99997c0,1.125 0.30208,1.9688 0.91666,2.5209c0.60938,0.5573 1.46875,0.8333 2.58334,0.8333c1.125,0 1.98437,-0.276 2.58333,-0.8333c0.60937,-0.5521 0.9167,-1.3959 0.9167,-2.5209l0,-8.99997l3.0833,0l0,9.22917c0,1.875 -0.5937,3.3073 -1.7708,4.2917c-1.1667,0.9896 -2.77087,1.4791 -4.81253,1.4791"/>
   <path id="svg_7" fill-rule="nonzero" fill="#ec6421" d="m58.5523,156.4948l0,-14.7708l3.08333,0l0,12.375l7.27087,0l0,2.3958l-10.3542,0"/>
   <path id="svg_8" fill-rule="nonzero" fill="#ec6421" d="m70.6091,156.4948l0,-14.7708l10.5833,0l0,2.41667l-7.49997,0l0,3.77083l6.66667,0l0,2.39583l-6.66667,0l0,3.79167l7.49997,0l0,2.3958l-10.5833,0"/>
   <path id="svg_9" fill-rule="nonzero" fill="#ec6421" d="m83.3536,156.4948l0,-14.7708l7.08333,0c1.69271,0 2.93747,0.45313 3.72917,1.35417c0.8021,0.89062 1.2083,2.09375 1.2083,3.60416c0,0.98959 -0.2604,1.84375 -0.7708,2.5625c-0.5156,0.72396 -1.2396,1.2448 -2.16667,1.5625c0.23438,0.19792 0.42188,0.41146 0.5625,0.64584c0.15104,0.22396 0.30209,0.53123 0.45837,0.91663l1.7916,4.125l-3.2083,0l-1.75,-3.9583c-0.15625,-0.3437 -0.32292,-0.5885 -0.5,-0.7292c-0.18229,-0.13538 -0.48958,-0.2083 -0.91667,-0.2083l-2.4375,0l0,4.8958l-3.08333,0m3.08333,-7.4583l3.1875,0c0.81771,0 1.45834,-0.17708 1.91667,-0.54167c0.45833,-0.35937 0.6875,-0.96354 0.6875,-1.8125c0,-0.83333 -0.20313,-1.4375 -0.60417,-1.8125c-0.39062,-0.38541 -0.99479,-0.58333 -1.8125,-0.58333l-3.375,0l0,4.75"/>
   <path id="svg_10" fill-rule="nonzero" fill="#ec6421" d="m102.562,156.4948l0,-14.7708l3.08333,0l0,6.1875l6.45834,0l0,-6.1875l3.08333,0l0,14.7708l-3.08333,0l0,-6.18747l-6.45834,0l0,6.18747l-3.08333,0"/>
   <path id="svg_11" fill-rule="nonzero" fill="#ec6421" d="m117.805,156.4948l0,-14.7708l10.5833,0l0,2.41667l-7.49997,0l0,3.77083l6.66667,0l0,2.39583l-6.66667,0l0,3.79167l7.49997,0l0,2.3958l-10.5833,0"/>
   <path id="svg_12" fill-rule="nonzero" fill="#ec6421" d="m130.55,156.4948l0,-14.7708l3.08333,0l0,12.375l7.27087,0l0,2.3958l-10.3542,0"/>
   <path id="svg_13" fill-rule="nonzero" fill="#ec6421" d="m142.60699,156.4948l0,-14.7708l10.3958,0l0,2.41667l-7.31247,0l0,3.77083l6.45834,0l0,2.39583l-6.45834,0l0,6.18747l-3.08333,0"/>
   <path id="svg_14" fill-rule="nonzero" fill="#ec6421" d="m154.686,156.4948l0,-14.7708l10.5833,0l0,2.41667l-7.49997,0l0,3.77083l6.66667,0l0,2.39583l-6.66667,0l0,3.79167l7.49997,0l0,2.3958l-10.5833,0"/>
   <path id="svg_15" fill-rule="nonzero" fill="#ec6421" d="m167.431,156.4948l0,-14.7708l2.6875,0l6.97917,9.83333l0,-9.83333l3.10413,0l0,14.7708l-2.6875,0l-6.99997,-9.8333l0,9.8333l-3.08333,0"/>
   <path id="svg_16" fill-rule="nonzero" fill="#ec6421" d="m192.43767,156.7242c-0.94792,0 -1.82813,-0.0729 -2.64584,-0.2084c-0.82291,-0.1354 -1.53125,-0.3385 -2.125,-0.6041l0,-2.7292c0.66667,0.2812 1.38542,0.5 2.16667,0.6667c0.79167,0.1666 1.5625,0.25 2.3125,0.25c1.06771,0 1.85417,-0.0938 2.35417,-0.2917c0.5,-0.1927 0.75,-0.6458 0.75,-1.3542c0,-0.4427 -0.10417,-0.7916 -0.3125,-1.04163c-0.20834,-0.26042 -0.57813,-0.5 -1.10417,-0.70834c-0.53125,-0.20833 -1.28125,-0.4427 -2.25,-0.70833c-1.54167,-0.41667 -2.625,-0.94271 -3.25,-1.58333c-0.625,-0.65104 -0.9375,-1.54167 -0.9375,-2.66667c0,-1.35937 0.48958,-2.40625 1.47917,-3.14583c1,-0.73438 2.4427,-1.10417 4.33333,-1.10417c0.88542,0 1.71354,0.0625 2.47917,0.1875c0.76041,0.125 1.3802,0.27083 1.85413,0.4375l0,2.72917c-1.24997,-0.46875 -2.55726,-0.70834 -3.91663,-0.70834c-0.95834,0 -1.71875,0.10417 -2.27084,0.3125c-0.54166,0.19792 -0.8125,0.625 -0.8125,1.29167c0,0.375 0.09375,0.68229 0.29167,0.91667c0.19271,0.22396 0.53125,0.43229 1.02083,0.625c0.48438,0.18229 1.15625,0.38541 2.02084,0.60416c1.20833,0.32292 2.13541,0.70313 2.79166,1.14584c0.66667,0.44791 1.12497,0.95312 1.37497,1.52083c0.25,0.57292 0.375,1.2031 0.375,1.8958c0,1.2917 -0.4948,2.3282 -1.47913,3.1042c-0.97396,0.7812 -2.47396,1.1667 -4.5,1.1667"/>
   <path id="svg_17" fill-rule="nonzero" fill="#ec6421" d="m207.76283,156.7242c-2.47396,0 -4.36979,-0.6667 -5.6875,-2c-1.30729,-1.3438 -1.95833,-3.1719 -1.95833,-5.4792c0,-2.44271 0.63542,-4.34375 1.91667,-5.70833c1.27604,-1.35938 3.17708,-2.04167 5.70833,-2.04167c0.88542,0 1.6875,0.07292 2.3958,0.20833c0.7188,0.125 1.3959,0.30209 2.0209,0.52084l0,2.70833c-1.3073,-0.52604 -2.70316,-0.79167 -4.18753,-0.79167c-1.6823,0 -2.89063,0.42709 -3.625,1.27084c-0.72396,0.83333 -1.08334,2.11458 -1.08334,3.83333c0,3.2396 1.58854,4.8542 4.77084,4.8542c0.70833,0 1.41666,-0.0625 2.12503,-0.1875c0.7083,-0.125 1.3802,-0.3177 2.0208,-0.5834l0,2.7292c-0.625,0.1979 -1.3021,0.3542 -2.0208,0.4792c-0.70837,0.125 -1.51045,0.1875 -2.39587,0.1875"/>
   <path id="svg_18" fill-rule="nonzero" fill="#ec6421" d="m214.32899,156.4948l0,-14.7708l3.08333,0l0,6.1875l6.45834,0l0,-6.1875l3.08333,0l0,14.7708l-3.08333,0l0,-6.18747l-6.45834,0l0,6.18747l-3.08333,0"/>
   <path id="svg_19" fill-rule="nonzero" fill="#ec6421" d="m232.59284,140.14l0,-2.25l2.4375,0l0,2.25l-2.4375,0m4.5,0l0,-2.25l2.43747,0l0,2.25l-2.43747,0m-1.04166,16.5833c-2.03125,0 -3.64063,-0.4895 -4.83334,-1.4791c-1.18229,-0.9844 -1.77083,-2.4167 -1.77083,-4.2917l0,-9.22917l3.10417,0l0,8.99997c0,1.125 0.30208,1.9688 0.91666,2.5209c0.60938,0.5573 1.46875,0.8333 2.58334,0.8333c1.125,0 1.98437,-0.276 2.58333,-0.8333c0.60937,-0.5521 0.9167,-1.3959 0.9167,-2.5209l0,-8.99997l3.0833,0l0,9.22917c0,1.875 -0.5937,3.3073 -1.7708,4.2917c-1.1667,0.9896 -2.77087,1.4791 -4.81253,1.4791"/>
   <path id="svg_20" fill-rule="nonzero" fill="#ec6421" d="m245.136,156.4948l0,-14.7708l3.08333,0l0,12.375l7.27087,0l0,2.3958l-10.3542,0"/>
   <path id="svg_21" fill-rule="nonzero" fill="#ec6421" d="m257.19299,156.4948l0,-14.7708l10.5833,0l0,2.41667l-7.49997,0l0,3.77083l6.66667,0l0,2.39583l-6.66667,0l0,3.79167l7.49997,0l0,2.3958l-10.5833,0"/>
   <path id="svg_22" fill-rule="nonzero" fill="#ec6421" d="m269.93701,156.4948l0,-14.7708l7.08333,0c1.69271,0 2.93747,0.45313 3.72917,1.35417c0.8021,0.89062 1.2083,2.09375 1.2083,3.60416c0,0.98959 -0.2604,1.84375 -0.7708,2.5625c-0.5156,0.72396 -1.2396,1.2448 -2.16667,1.5625c0.23438,0.19792 0.42188,0.41146 0.5625,0.64584c0.15104,0.22396 0.30209,0.53123 0.45837,0.91663l1.7916,4.125l-3.2083,0l-1.75,-3.9583c-0.15625,-0.3437 -0.32292,-0.5885 -0.5,-0.7292c-0.18229,-0.13538 -0.48958,-0.2083 -0.91667,-0.2083l-2.4375,0l0,4.8958l-3.08333,0m3.08333,-7.4583l3.1875,0c0.81771,0 1.45834,-0.17708 1.91667,-0.54167c0.45833,-0.35937 0.6875,-0.96354 0.6875,-1.8125c0,-0.83333 -0.20313,-1.4375 -0.60417,-1.8125c-0.39062,-0.38541 -0.99479,-0.58333 -1.8125,-0.58333l-3.375,0l0,4.75"/>
   <path id="svg_23" fill-rule="nonzero" fill="#ec6421" d="m284.103,156.4948l0,-14.7708l2.6875,0l6.97917,9.83333l0,-9.83333l3.10413,0l0,14.7708l-2.6875,0l-6.99997,-9.8333l0,9.8333l-3.08333,0"/>
   <path id="svg_24" fill-rule="nonzero" fill="#ec6421" d="m93.07767,32.98198l-8.22917,-22.14581l11.5208,-4.29167c1.8021,-0.66667 3.4063,-0.88021 4.8125,-0.64583c1.4167,0.23958 2.6302,0.83333 3.6459,1.79166c1.0104,0.95834 1.8125,2.22396 2.3958,3.79167c0.5521,1.5 0.6667,2.95833 0.3333,4.37498c-0.3229,1.4063 -0.9895,2.6354 -2,3.6875c0.3334,0.1146 0.6355,0.2813 0.9167,0.5c0.2917,0.224 0.6458,0.5365 1.0625,0.9375l4.7083,4.875l-6.75,2.5l-4.3125,-4.4583c-0.3333,-0.3438 -0.6666,-0.5521 -1,-0.625c-0.3229,-0.0677 -0.7239,-0.0104 -1.2083,0.1667l-1.8333,0.6666l2.3958,6.4584l-6.45833,2.4166m2.20833,-13.8333l3.4167,-1.2708c0.9427,-0.3438 1.5833,-0.8594 1.9166,-1.5417c0.3334,-0.6771 0.3334,-1.47918 0,-2.39585c-0.7396,-1.95833 -2.0208,-2.59375 -3.8541,-1.91666l-3.62503,1.33333l2.14583,5.79168"/>
   <path id="svg_25" fill-rule="nonzero" fill="#ec6421" d="m123.5675,24.84061c-3.87498,0.4479 -6.95311,-0.1667 -9.22915,-1.8334c-2.26562,-1.6666 -3.63541,-4.6145 -4.10416,-8.8541c-0.33334,-2.9167 -0.13542,-5.31774 0.58333,-7.20836c0.71875,-1.88542 1.92708,-3.33854 3.625,-4.35417c1.69271,-1.02604 3.82292,-1.6875 6.39588,-1.97916c2.5833,-0.29167 4.8125,-0.12501 6.6875,0.5c1.875,0.61458 3.375,1.76041 4.5,3.43749c1.125,1.6823 1.8541,3.97917 2.1875,6.8958c0.4687,4.2396 -0.224,7.4271 -2.0834,9.5625c-1.8489,2.125 -4.7031,3.4063 -8.5625,3.8334m-0.6666,-5.8334c1.75,-0.1927 2.9635,-0.8229 3.6458,-1.8958c0.6927,-1.0833 0.9219,-2.7083 0.6875,-4.875c-0.2656,-2.30208 -0.8542,-3.88541 -1.7708,-4.75c-0.9063,-0.875 -2.2292,-1.21354 -3.9792,-1.02083c-1.7396,0.19792 -2.94793,0.82292 -3.62501,1.875c-0.6823,1.04167 -0.89063,2.71873 -0.625,5.02083c0.23437,2.1667 0.80208,3.7031 1.70833,4.6042c0.90104,0.8906 2.21878,1.2396 3.95838,1.0416"/>
   <path id="svg_26" fill-rule="nonzero" fill="#ec6421" d="m135.192,23.25433l3.27083,-23.3958l6.83337,0.95833l-1.14587,8.25l8.24997,-7.25l7.7709,1.08334l-9.5834,8.41663l6.8959,15.0625l-7.2709,-1.0208l-4.4375,-10.2708l-2.81247,2.3541l-0.9375,6.7709l-6.83333,-0.9584"/>
   <path id="svg_27" fill-rule="nonzero" fill="#ec6421" d="m167.4794,30.98189c-3.61458,-1.4895 -6.01042,-3.5104 -7.1875,-6.0625c-1.18229,-2.552 -0.95833,-5.7968 0.66666,-9.72912c1.10938,-2.71875 2.4375,-4.73438 3.97917,-6.04167c1.55209,-1.30208 3.31771,-1.98958 5.29168,-2.0625c1.9687,-0.08333 4.151,0.36979 6.5417,1.35417c2.401,1 4.276,2.22396 5.625,3.66666c1.3437,1.4323 2.1041,3.15626 2.2708,5.16666c0.1771,2.0156 -0.2865,4.3854 -1.3958,7.1042c-1.625,3.9271 -3.7657,6.3802 -6.4167,7.3541c-2.6563,0.9844 -5.7813,0.7344 -9.37501,-0.75m2.25001,-5.4375c1.625,0.6771 2.9896,0.7136 4.1042,0.1042c1.125,-0.625 2.1041,-1.9427 2.9375,-3.9583c0.875,-2.1511 1.125,-3.8177 0.75,-5.00002c-0.375,-1.19271 -1.375,-2.13021 -3,-2.8125c-1.6146,-0.66667 -2.974,-0.70834 -4.0834,-0.125c-1.11456,0.58333 -2.10415,1.95312 -2.97915,4.10412c-0.83333,2.0157 -1.07291,3.6355 -0.70833,4.8542c0.375,1.224 1.36459,2.1667 2.97918,2.8333"/>
  </g>
 </g>
</svg>