<svg width="315" height="222" xmlns="http://www.w3.org/2000/svg" version="1.0" preserveAspectRatio="xMidYMid meet" zoomAndPan="magnify">
 <defs>
  <g id="svg_1"/>
  <clipPath id="5fcf971053">
   <path id="svg_2" clip-rule="nonzero" d="m93.33594,127l199.5,0l0,77.83594l-199.5,0l0,-77.83594zm0,0"/>
  </clipPath>
 </defs>
 <g>
  <title>Layer 1</title>
  <rect id="svg_3" height="449.99999" y="-14.5" fill="#ffffff" width="450" x="85.5"/>
  <path id="svg_4" d="m87.5,-22.5l450,0l0,450l-450,0l0,-450z" opacity="undefined" fill="#ffffff"/>
  <g id="svg_5" clip-path="url(#5fcf971053)">
   <path id="svg_6" fill-rule="nonzero" d="m291,151l-93.26172,-23.34766c-3.13281,-0.78125 -6.39062,-0.78125 -9.45703,0l-93.32812,23.34766c-1.62891,0.39063 -1.62891,2.73828 0,3.12891l45.84765,11.48047c25.95703,-7.69532 53.8711,-8.08594 80.41406,-3.39063c-26.86718,-3 -55.17187,-0.65234 -80.41406,9.0625l0,13.10938c0,1.10937 1.04688,1.82812 2.08985,1.5c14.86718,-4.5625 31.95703,-7.23829 50.08593,-7.23829c18.12891,0 35.21875,2.67579 50.15235,7.23829c1.04297,0.32812 2.02343,-0.39063 2.02343,-1.5l0,-18.78125l20.01954,-5.02344l0,35.08984l-0.32422,0c-0.71875,0 -1.30469,0.58594 -1.30469,1.30469l0,6.45312c0,0.71875 0.58594,1.30469 1.30469,1.30469l3.91015,0c0.71875,0 1.30469,-0.58594 1.30469,-1.30469l0,-6.45312c0,-0.71875 -0.58594,-1.30469 -1.30469,-1.30469l-0.32422,0l0,-35.87109l22.56641,-5.67578c1.69531,-0.39063 1.69531,-2.73828 0,-3.12891zm0,0" fill="#004f7c"/>
  </g>
  <g id="svg_7" fill="#ec6521">
   <g id="svg_8">
    <g id="svg_9">
     <path id="svg_10" d="m95.14051,220.29287c-0.71094,0 -1.3711,-0.05469 -1.98438,-0.15625c-0.61719,-0.10157 -1.14844,-0.25391 -1.59375,-0.45313l0,-2.04688c0.5,0.21094 1.03906,0.375 1.625,0.5c0.59375,0.125 1.17188,0.1875 1.73438,0.1875c0.80078,0 1.39062,-0.07031 1.76562,-0.21875c0.375,-0.14453 0.5625,-0.48437 0.5625,-1.01562c0,-0.33203 -0.07812,-0.59375 -0.23437,-0.78125c-0.15625,-0.19531 -0.4336,-0.375 -0.82813,-0.53125c-0.39844,-0.15625 -0.96094,-0.33203 -1.6875,-0.53125c-1.15625,-0.3125 -1.96875,-0.70703 -2.4375,-1.1875c-0.46875,-0.48828 -0.70312,-1.15625 -0.70312,-2c0,-1.01953 0.36718,-1.80469 1.10937,-2.35938c0.75,-0.55078 1.83203,-0.82812 3.25,-0.82812c0.66406,0 1.28516,0.04687 1.85938,0.14062c0.57031,0.09375 1.03515,0.20313 1.39062,0.32813l0,2.04687c-0.9375,-0.35156 -1.91797,-0.53125 -2.9375,-0.53125c-0.71875,0 -1.28906,0.07813 -1.70312,0.23438c-0.40625,0.14844 -0.60938,0.46875 -0.60938,0.96875c0,0.28125 0.07031,0.51172 0.21875,0.6875c0.14453,0.16797 0.39844,0.32422 0.76563,0.46875c0.36328,0.13672 0.86718,0.28906 1.51562,0.45312c0.90625,0.24219 1.60156,0.52735 2.09375,0.85938c0.5,0.33594 0.84375,0.71484 1.03125,1.14062c0.1875,0.42969 0.28125,0.90235 0.28125,1.42188c0,0.96875 -0.37109,1.74609 -1.10937,2.32812c-0.73047,0.58594 -1.85547,0.87501 -3.375,0.87501zm0,0"/>
    </g>
   </g>
  </g>
  <g id="svg_11" fill="#ec6521">
   <g id="svg_12">
    <g id="svg_13">
     <path id="svg_14" d="m106.63483,220.29287c-1.85547,0 -3.27734,-0.50001 -4.26562,-1.50001c-0.98047,-1.00781 -1.46875,-2.3789 -1.46875,-4.10937c0,-1.83203 0.47656,-3.25781 1.4375,-4.28125c0.95703,-1.01953 2.38281,-1.53125 4.28125,-1.53125c0.66406,0 1.26562,0.05469 1.79687,0.15625c0.53906,0.09375 1.04688,0.22656 1.51563,0.39062l0,2.03125c-0.98047,-0.39453 -2.02735,-0.59375 -3.14063,-0.59375c-1.26172,0 -2.16797,0.32032 -2.71875,0.95313c-0.54297,0.625 -0.8125,1.58594 -0.8125,2.875c0,2.42969 1.19141,3.64062 3.57813,3.64062c0.53125,0 1.0625,-0.04687 1.59375,-0.14062c0.53125,-0.09375 1.03515,-0.23828 1.51562,-0.4375l0,2.04687c-0.46875,0.14844 -0.97656,0.26563 -1.51562,0.35938c-0.53125,0.09375 -1.13282,0.14063 -1.79688,0.14063zm0,0"/>
    </g>
   </g>
  </g>
  <g id="svg_15" fill="#ec6521">
   <g id="svg_16">
    <g id="svg_17">
     <path id="svg_18" d="m111.55902,220.12099l0,-11.07813l2.3125,0l0,4.64063l4.84375,0l0,-4.64063l2.3125,0l0,11.07813l-2.3125,0l0,-4.64063l-4.84375,0l0,4.64063l-2.3125,0zm0,0"/>
    </g>
   </g>
  </g>
  <g id="svg_19" fill="#ec6521">
   <g id="svg_20">
    <g id="svg_21">
     <path id="svg_22" d="m125.25689,207.85536l0,-1.6875l1.82813,0l0,1.6875l-1.82813,0zm3.375,0l0,-1.6875l1.82813,0l0,1.6875l-1.82813,0zm-0.78125,12.43751c-1.52344,0 -2.73047,-0.36719 -3.625,-1.10938c-0.88672,-0.73828 -1.32812,-1.8125 -1.32812,-3.21875l0,-6.92188l2.32812,0l0,6.75c0,0.84375 0.22656,1.47657 0.6875,1.89063c0.45703,0.41797 1.10156,0.625 1.9375,0.625c0.84375,0 1.48828,-0.20703 1.9375,-0.625c0.45703,-0.41406 0.6875,-1.04688 0.6875,-1.89063l0,-6.75l2.3125,0l0,6.92188c0,1.40625 -0.44531,2.48047 -1.32812,3.21875c-0.875,0.74219 -2.07813,1.10938 -3.60938,1.10938zm0,0"/>
    </g>
   </g>
  </g>
  <g id="svg_23" fill="#ec6521">
   <g id="svg_24">
    <g id="svg_25">
     <path id="svg_26" d="m134.66419,220.12099l0,-11.07813l2.3125,0l0,9.28125l5.45312,0l0,1.79688l-7.76562,0zm0,0"/>
    </g>
   </g>
  </g>
  <g id="svg_27" fill="#ec6521">
   <g id="svg_28">
    <g id="svg_29">
     <path id="svg_30" d="m143.70685,220.12099l0,-11.07813l7.9375,0l0,1.8125l-5.625,0l0,2.82813l5,0l0,1.79687l-5,0l0,2.84375l5.625,0l0,1.79688l-7.9375,0zm0,0"/>
    </g>
   </g>
  </g>
  <g id="svg_31" fill="#ec6521">
   <g id="svg_32">
    <g id="svg_33">
     <path id="svg_34" d="m153.26523,220.12099l0,-11.07813l5.3125,0c1.26953,0 2.20312,0.33985 2.79687,1.01563c0.60156,0.66797 0.90625,1.57031 0.90625,2.70312c0,0.74219 -0.19531,1.38282 -0.57812,1.92188c-0.38672,0.54297 -0.92969,0.93359 -1.625,1.17187c0.17578,0.14844 0.3164,0.3086 0.42187,0.48438c0.11328,0.16797 0.22656,0.39844 0.34375,0.6875l1.34375,3.09375l-2.40625,0l-1.3125,-2.96875c-0.11719,-0.25781 -0.24219,-0.44141 -0.375,-0.54688c-0.13672,-0.10156 -0.36719,-0.15625 -0.6875,-0.15625l-1.82812,0l0,3.67188l-2.3125,0zm2.3125,-5.59375l2.39062,0c0.61328,0 1.09375,-0.13281 1.4375,-0.40625c0.34375,-0.26953 0.51563,-0.72266 0.51563,-1.35938c0,-0.625 -0.15235,-1.07812 -0.45313,-1.35937c-0.29297,-0.28906 -0.74609,-0.4375 -1.35937,-0.4375l-2.53125,0l0,3.5625zm0,0"/>
    </g>
   </g>
  </g>
  <g id="svg_35" fill="#ec6521">
   <g id="svg_36">
    <g id="svg_37"/>
   </g>
  </g>
  <g id="svg_38" fill="#ec6521">
   <g id="svg_39">
    <g id="svg_40">
     <path id="svg_41" d="m167.67159,220.12099l0,-11.07813l2.3125,0l0,4.64063l4.84375,0l0,-4.64063l2.3125,0l0,11.07813l-2.3125,0l0,-4.64063l-4.84375,0l0,4.64063l-2.3125,0zm0,0"/>
    </g>
   </g>
  </g>
  <g id="svg_42" fill="#ec6521">
   <g id="svg_43">
    <g id="svg_44">
     <path id="svg_45" d="m179.10384,220.12099l0,-11.07813l7.9375,0l0,1.8125l-5.625,0l0,2.82813l5,0l0,1.79687l-5,0l0,2.84375l5.625,0l0,1.79688l-7.9375,0zm0,0"/>
    </g>
   </g>
  </g>
  <g id="svg_46" fill="#ec6521">
   <g id="svg_47">
    <g id="svg_48">
     <path id="svg_49" d="m188.66224,220.12099l0,-11.07813l2.3125,0l0,9.28125l5.45312,0l0,1.79688l-7.76562,0zm0,0"/>
    </g>
   </g>
  </g>
  <g id="svg_50" fill="#ec6521">
   <g id="svg_51">
    <g id="svg_52">
     <path id="svg_53" d="m197.70488,220.12099l0,-11.07813l7.79687,0l0,1.8125l-5.48437,0l0,2.82813l4.84375,0l0,1.79687l-4.84375,0l0,4.64063l-2.3125,0zm0,0"/>
    </g>
   </g>
  </g>
  <g id="svg_54" fill="#ec6521">
   <g id="svg_55">
    <g id="svg_56">
     <path id="svg_57" d="m206.76473,220.12099l0,-11.07813l7.9375,0l0,1.8125l-5.625,0l0,2.82813l5,0l0,1.79687l-5,0l0,2.84375l5.625,0l0,1.79688l-7.9375,0zm0,0"/>
    </g>
   </g>
  </g>
  <g id="svg_58" fill="#ec6521">
   <g id="svg_59">
    <g id="svg_60">
     <path id="svg_61" d="m216.32313,220.12099l0,-11.07813l2.01562,0l5.23438,7.375l0,-7.375l2.32812,0l0,11.07813l-2.01562,0l-5.25,-7.375l0,7.375l-2.3125,0zm0,0"/>
    </g>
   </g>
  </g>
  <g id="svg_62" fill="#ec6521">
   <g id="svg_63">
    <g id="svg_64"/>
   </g>
  </g>
  <g id="svg_65" fill="#ec6521">
   <g id="svg_66">
    <g id="svg_67">
     <path id="svg_68" d="m235.07811,220.29287c-0.71094,0 -1.3711,-0.05469 -1.98438,-0.15625c-0.61719,-0.10157 -1.14844,-0.25391 -1.59375,-0.45313l0,-2.04688c0.5,0.21094 1.03906,0.375 1.625,0.5c0.59375,0.125 1.17188,0.1875 1.73438,0.1875c0.80078,0 1.39062,-0.07031 1.76562,-0.21875c0.375,-0.14453 0.5625,-0.48437 0.5625,-1.01562c0,-0.33203 -0.07812,-0.59375 -0.23437,-0.78125c-0.15625,-0.19531 -0.4336,-0.375 -0.82813,-0.53125c-0.39844,-0.15625 -0.96094,-0.33203 -1.6875,-0.53125c-1.15625,-0.3125 -1.96875,-0.70703 -2.4375,-1.1875c-0.46875,-0.48828 -0.70312,-1.15625 -0.70312,-2c0,-1.01953 0.36718,-1.80469 1.10937,-2.35938c0.75,-0.55078 1.83203,-0.82812 3.25,-0.82812c0.66406,0 1.28516,0.04687 1.85938,0.14062c0.57031,0.09375 1.03515,0.20313 1.39062,0.32813l0,2.04687c-0.9375,-0.35156 -1.91797,-0.53125 -2.9375,-0.53125c-0.71875,0 -1.28906,0.07813 -1.70312,0.23438c-0.40625,0.14844 -0.60938,0.46875 -0.60938,0.96875c0,0.28125 0.07031,0.51172 0.21875,0.6875c0.14453,0.16797 0.39844,0.32422 0.76563,0.46875c0.36328,0.13672 0.86718,0.28906 1.51562,0.45312c0.90625,0.24219 1.60156,0.52735 2.09375,0.85938c0.5,0.33594 0.84375,0.71484 1.03125,1.14062c0.1875,0.42969 0.28125,0.90235 0.28125,1.42188c0,0.96875 -0.37109,1.74609 -1.10937,2.32812c-0.73047,0.58594 -1.85547,0.87501 -3.375,0.87501zm0,0"/>
    </g>
   </g>
  </g>
  <g id="svg_69" fill="#ec6521">
   <g id="svg_70">
    <g id="svg_71">
     <path id="svg_72" d="m246.57243,220.29287c-1.85547,0 -3.27734,-0.50001 -4.26562,-1.50001c-0.98047,-1.00781 -1.46875,-2.3789 -1.46875,-4.10937c0,-1.83203 0.47656,-3.25781 1.4375,-4.28125c0.95703,-1.01953 2.38281,-1.53125 4.28125,-1.53125c0.66406,0 1.26562,0.05469 1.79687,0.15625c0.53906,0.09375 1.04688,0.22656 1.51563,0.39062l0,2.03125c-0.98047,-0.39453 -2.02735,-0.59375 -3.14063,-0.59375c-1.26172,0 -2.16797,0.32032 -2.71875,0.95313c-0.54297,0.625 -0.8125,1.58594 -0.8125,2.875c0,2.42969 1.19141,3.64062 3.57813,3.64062c0.53125,0 1.0625,-0.04687 1.59375,-0.14062c0.53125,-0.09375 1.03515,-0.23828 1.51562,-0.4375l0,2.04687c-0.46875,0.14844 -0.97656,0.26563 -1.51562,0.35938c-0.53125,0.09375 -1.13282,0.14063 -1.79688,0.14063zm0,0"/>
    </g>
   </g>
  </g>
  <g id="svg_73" fill="#ec6521">
   <g id="svg_74">
    <g id="svg_75">
     <path id="svg_76" d="m251.49662,220.12099l0,-11.07813l2.3125,0l0,4.64063l4.84375,0l0,-4.64063l2.3125,0l0,11.07813l-2.3125,0l0,-4.64063l-4.84375,0l0,4.64063l-2.3125,0zm0,0"/>
    </g>
   </g>
  </g>
  <g id="svg_77" fill="#ec6521">
   <g id="svg_78">
    <g id="svg_79">
     <path id="svg_80" d="m265.19449,207.85536l0,-1.6875l1.82813,0l0,1.6875l-1.82813,0zm3.375,0l0,-1.6875l1.82813,0l0,1.6875l-1.82813,0zm-0.78125,12.43751c-1.52344,0 -2.73047,-0.36719 -3.625,-1.10938c-0.88672,-0.73828 -1.32812,-1.8125 -1.32812,-3.21875l0,-6.92188l2.32812,0l0,6.75c0,0.84375 0.22656,1.47657 0.6875,1.89063c0.45703,0.41797 1.10156,0.625 1.9375,0.625c0.84375,0 1.48828,-0.20703 1.9375,-0.625c0.45703,-0.41406 0.6875,-1.04688 0.6875,-1.89063l0,-6.75l2.3125,0l0,6.92188c0,1.40625 -0.44531,2.48047 -1.32812,3.21875c-0.875,0.74219 -2.07813,1.10938 -3.60938,1.10938zm0,0"/>
    </g>
   </g>
  </g>
  <g id="svg_81" fill="#ec6521">
   <g id="svg_82">
    <g id="svg_83">
     <path id="svg_84" d="m274.60181,220.12099l0,-11.07813l2.3125,0l0,9.28125l5.45312,0l0,1.79688l-7.76562,0zm0,0"/>
    </g>
   </g>
  </g>
  <g id="svg_85" fill="#ec6521">
   <g id="svg_86">
    <g id="svg_87">
     <path id="svg_88" d="m283.64444,220.12099l0,-11.07813l7.9375,0l0,1.8125l-5.625,0l0,2.82813l5,0l0,1.79687l-5,0l0,2.84375l5.625,0l0,1.79688l-7.9375,0zm0,0"/>
    </g>
   </g>
  </g>
  <g id="svg_89" fill="#ec6521">
   <g id="svg_90">
    <g id="svg_91">
     <path id="svg_92" d="m293.20282,220.12099l0,-11.07813l5.3125,0c1.26953,0 2.20312,0.33985 2.79687,1.01563c0.60156,0.66797 0.90625,1.57031 0.90625,2.70312c0,0.74219 -0.19531,1.38282 -0.57812,1.92188c-0.38672,0.54297 -0.92969,0.93359 -1.625,1.17187c0.17578,0.14844 0.3164,0.3086 0.42187,0.48438c0.11328,0.16797 0.22656,0.39844 0.34375,0.6875l1.34375,3.09375l-2.40625,0l-1.3125,-2.96875c-0.11719,-0.25781 -0.24219,-0.44141 -0.375,-0.54688c-0.13672,-0.10156 -0.36719,-0.15625 -0.6875,-0.15625l-1.82812,0l0,3.67188l-2.3125,0zm2.3125,-5.59375l2.39062,0c0.61328,0 1.09375,-0.13281 1.4375,-0.40625c0.34375,-0.26953 0.51563,-0.72266 0.51563,-1.35938c0,-0.625 -0.15235,-1.07812 -0.45313,-1.35937c-0.29297,-0.28906 -0.74609,-0.4375 -1.35937,-0.4375l-2.53125,0l0,3.5625zm0,0"/>
    </g>
   </g>
  </g>
  <g id="svg_93" fill="#ec6521">
   <g id="svg_94">
    <g id="svg_95">
     <path id="svg_96" d="m303.82709,220.12099l0,-11.07813l2.01562,0l5.23438,7.375l0,-7.375l2.32812,0l0,11.07813l-2.01562,0l-5.25,-7.375l0,7.375l-2.3125,0zm0,0"/>
    </g>
   </g>
  </g>
  <g id="svg_97" fill="#ec6521">
   <g id="svg_98">
    <g id="svg_99">
     <path id="svg_100" d="m160.55827,127.48649l-6.17188,-16.60937l8.64063,-3.21875c1.35156,-0.5 2.55469,-0.66016 3.60938,-0.48438c1.0625,0.17969 1.97265,0.625 2.73437,1.34375c0.75781,0.71875 1.35938,1.66797 1.79688,2.84375c0.41406,1.125 0.5,2.21875 0.25,3.28125c-0.24219,1.05469 -0.74219,1.97657 -1.5,2.76563c0.25,0.08594 0.47656,0.21094 0.6875,0.375c0.21875,0.16797 0.48437,0.40234 0.79687,0.70312l3.53125,3.65625l-5.0625,1.875l-3.23437,-3.34375c-0.25,-0.25781 -0.5,-0.41406 -0.75,-0.46875c-0.24219,-0.05078 -0.54297,-0.00781 -0.90625,0.125l-1.375,0.5l1.79687,4.84375l-4.84375,1.8125zm1.65625,-10.375l2.5625,-0.95312c0.70703,-0.25781 1.1875,-0.64453 1.4375,-1.15625c0.25,-0.50781 0.25,-1.10938 0,-1.79688c-0.55469,-1.46875 -1.51562,-1.94531 -2.89062,-1.4375l-2.71875,1l1.60937,4.34375zm0,0"/>
    </g>
   </g>
  </g>
  <g id="svg_101" fill="#ec6521">
   <g id="svg_102">
    <g id="svg_103">
     <path id="svg_104" d="m183.42602,121.38043c-2.90625,0.33594 -5.21485,-0.125 -6.92188,-1.375c-1.69922,-1.25 -2.72656,-3.46094 -3.07813,-6.64063c-0.25,-2.1875 -0.10156,-3.98828 0.43751,-5.40625c0.53906,-1.41406 1.44531,-2.5039 2.71875,-3.26562c1.26953,-0.76953 2.86718,-1.26563 4.79687,-1.48438c1.9375,-0.21875 3.60938,-0.09375 5.01563,0.375c1.40625,0.46094 2.53125,1.32032 3.375,2.57813c0.84375,1.26172 1.39062,2.98437 1.64062,5.17187c0.35156,3.17969 -0.16797,5.57032 -1.5625,7.17188c-1.38672,1.59375 -3.52734,2.55469 -6.42187,2.875zm-0.5,-4.375c1.3125,-0.14453 2.22265,-0.61719 2.73437,-1.42188c0.51953,-0.8125 0.69141,-2.03125 0.51563,-3.65625c-0.19922,-1.72656 -0.64063,-2.91406 -1.32813,-3.5625c-0.67969,-0.65625 -1.67187,-0.91015 -2.98437,-0.76562c-1.30469,0.14844 -2.21094,0.61719 -2.71875,1.40625c-0.51172,0.78125 -0.66797,2.03906 -0.46875,3.76562c0.17578,1.625 0.60156,2.77735 1.28125,3.45313c0.67578,0.66797 1.66406,0.92969 2.96875,0.78125zm0,0"/>
    </g>
   </g>
  </g>
  <g id="svg_105" fill="#ec6521">
   <g id="svg_106">
    <g id="svg_107">
     <path id="svg_108" d="m192.14401,120.19078l2.45313,-17.54688l5.125,0.71875l-0.85938,6.1875l6.1875,-5.4375l5.82813,0.8125l-7.1875,6.3125l5.17187,11.29688l-5.45312,-0.76563l-3.32813,-7.70313l-2.10937,1.76563l-0.70313,5.07813l-5.125,-0.71875zm0,0"/>
    </g>
   </g>
  </g>
  <g id="svg_109" fill="#ec6521">
   <g id="svg_110">
    <g id="svg_111">
     <path id="svg_112" d="m216.35923,125.98645c-2.71094,-1.11719 -4.50782,-2.63281 -5.39063,-4.54688c-0.88672,-1.91406 -0.71875,-4.34765 0.5,-7.29687c0.83203,-2.03906 1.82813,-3.55078 2.98438,-4.53125c1.16406,-0.97656 2.48828,-1.49219 3.96875,-1.54688c1.47656,-0.0625 3.11328,0.27735 4.90625,1.01563c1.80078,0.75 3.20703,1.66797 4.21875,2.75c1.00781,1.07422 1.57812,2.36719 1.70312,3.875c0.13281,1.51172 -0.21484,3.28906 -1.04687,5.32812c-1.21875,2.94532 -2.82422,4.78516 -4.8125,5.51563c-1.99219,0.73828 -4.33594,0.55078 -7.03125,-0.5625zm1.6875,-4.07813c1.21875,0.50782 2.24218,0.53516 3.07812,0.07813c0.84375,-0.46875 1.57813,-1.45703 2.20313,-2.96875c0.65625,-1.61328 0.84375,-2.86328 0.5625,-3.75c-0.28125,-0.89453 -1.03125,-1.59766 -2.25,-2.10938c-1.21094,-0.5 -2.23047,-0.53125 -3.0625,-0.09375c-0.83594,0.4375 -1.57813,1.46485 -2.23438,3.07813c-0.625,1.51172 -0.80469,2.72656 -0.53125,3.64062c0.28125,0.91797 1.02344,1.625 2.23438,2.125zm0,0"/>
    </g>
   </g>
  </g>
 </g>
</svg>