<svg xmlns="http://www.w3.org/2000/svg" xmlns:xlink="http://www.w3.org/1999/xlink" zoomAndPan="magnify" preserveAspectRatio="xMidYMid meet" version="1.0" viewBox="91.35 102.63 222.07 117.68"><defs><g/><clipPath id="5fcf971053"><path d="M 93.335938 127 L 292.835938 127 L 292.835938 204.835938 L 93.335938 204.835938 Z M 93.335938 127 " clip-rule="nonzero"/></clipPath></defs><g clip-path="url(#5fcf971053)"><path fill="#004f7c" d="M 291 151 L 197.738281 127.652344 C 194.605469 126.871094 191.347656 126.871094 188.28125 127.652344 L 94.953125 151 C 93.324219 151.390625 93.324219 153.738281 94.953125 154.128906 L 140.800781 165.609375 C 166.757812 157.914062 194.671875 157.523438 221.214844 162.21875 C 194.347656 159.21875 166.042969 161.566406 140.800781 171.28125 L 140.800781 184.390625 C 140.800781 185.5 141.847656 186.21875 142.890625 185.890625 C 157.757812 181.328125 174.847656 178.652344 192.976562 178.652344 C 211.105469 178.652344 228.195312 181.328125 243.128906 185.890625 C 244.171875 186.21875 245.152344 185.5 245.152344 184.390625 L 245.152344 165.609375 L 265.171875 160.585938 L 265.171875 195.675781 L 264.847656 195.675781 C 264.128906 195.675781 263.542969 196.261719 263.542969 196.980469 L 263.542969 203.433594 C 263.542969 204.152344 264.128906 204.738281 264.847656 204.738281 L 268.757812 204.738281 C 269.476562 204.738281 270.0625 204.152344 270.0625 203.433594 L 270.0625 196.980469 C 270.0625 196.261719 269.476562 195.675781 268.757812 195.675781 L 268.433594 195.675781 L 268.433594 159.804688 L 291 154.128906 C 292.695312 153.738281 292.695312 151.390625 291 151 Z M 291 151 " fill-opacity="1" fill-rule="nonzero"/></g><g fill="#ec6521" fill-opacity="1"><g transform="translate(90.718629, 220.120987)"><g><path d="M 4.421875 0.171875 C 3.710938 0.171875 3.050781 0.117188 2.4375 0.015625 C 1.820312 -0.0859375 1.289062 -0.238281 0.84375 -0.4375 L 0.84375 -2.484375 C 1.34375 -2.273438 1.882812 -2.109375 2.46875 -1.984375 C 3.0625 -1.859375 3.640625 -1.796875 4.203125 -1.796875 C 5.003906 -1.796875 5.59375 -1.867188 5.96875 -2.015625 C 6.34375 -2.160156 6.53125 -2.5 6.53125 -3.03125 C 6.53125 -3.363281 6.453125 -3.625 6.296875 -3.8125 C 6.140625 -4.007812 5.863281 -4.1875 5.46875 -4.34375 C 5.070312 -4.5 4.507812 -4.675781 3.78125 -4.875 C 2.625 -5.1875 1.8125 -5.582031 1.34375 -6.0625 C 0.875 -6.550781 0.640625 -7.21875 0.640625 -8.0625 C 0.640625 -9.082031 1.007812 -9.867188 1.75 -10.421875 C 2.5 -10.972656 3.582031 -11.25 5 -11.25 C 5.664062 -11.25 6.285156 -11.203125 6.859375 -11.109375 C 7.429688 -11.015625 7.894531 -10.90625 8.25 -10.78125 L 8.25 -8.734375 C 7.3125 -9.085938 6.332031 -9.265625 5.3125 -9.265625 C 4.59375 -9.265625 4.023438 -9.1875 3.609375 -9.03125 C 3.203125 -8.882812 3 -8.5625 3 -8.0625 C 3 -7.78125 3.070312 -7.550781 3.21875 -7.375 C 3.363281 -7.207031 3.617188 -7.050781 3.984375 -6.90625 C 4.347656 -6.769531 4.851562 -6.617188 5.5 -6.453125 C 6.40625 -6.210938 7.101562 -5.925781 7.59375 -5.59375 C 8.09375 -5.257812 8.4375 -4.878906 8.625 -4.453125 C 8.8125 -4.023438 8.90625 -3.550781 8.90625 -3.03125 C 8.90625 -2.0625 8.535156 -1.285156 7.796875 -0.703125 C 7.066406 -0.117188 5.941406 0.171875 4.421875 0.171875 Z M 4.421875 0.171875 "/></g></g></g><g fill="#ec6521" fill-opacity="1"><g transform="translate(100.259831, 220.120987)"><g><path d="M 6.375 0.171875 C 4.519531 0.171875 3.097656 -0.328125 2.109375 -1.328125 C 1.128906 -2.335938 0.640625 -3.707031 0.640625 -5.4375 C 0.640625 -7.269531 1.117188 -8.695312 2.078125 -9.71875 C 3.035156 -10.738281 4.460938 -11.25 6.359375 -11.25 C 7.023438 -11.25 7.625 -11.195312 8.15625 -11.09375 C 8.695312 -11 9.203125 -10.867188 9.671875 -10.703125 L 9.671875 -8.671875 C 8.691406 -9.066406 7.644531 -9.265625 6.53125 -9.265625 C 5.269531 -9.265625 4.363281 -8.945312 3.8125 -8.3125 C 3.269531 -7.6875 3 -6.726562 3 -5.4375 C 3 -3.007812 4.191406 -1.796875 6.578125 -1.796875 C 7.109375 -1.796875 7.640625 -1.84375 8.171875 -1.9375 C 8.703125 -2.03125 9.207031 -2.175781 9.6875 -2.375 L 9.6875 -0.328125 C 9.21875 -0.179688 8.710938 -0.0625 8.171875 0.03125 C 7.640625 0.125 7.039062 0.171875 6.375 0.171875 Z M 6.375 0.171875 "/></g></g></g><g fill="#ec6521" fill-opacity="1"><g transform="translate(110.574642, 220.120987)"><g><path d="M 0.984375 0 L 0.984375 -11.078125 L 3.296875 -11.078125 L 3.296875 -6.4375 L 8.140625 -6.4375 L 8.140625 -11.078125 L 10.453125 -11.078125 L 10.453125 0 L 8.140625 0 L 8.140625 -4.640625 L 3.296875 -4.640625 L 3.296875 0 Z M 0.984375 0 "/></g></g></g><g fill="#ec6521" fill-opacity="1"><g transform="translate(122.006888, 220.120987)"><g><path d="M 3.25 -12.265625 L 3.25 -13.953125 L 5.078125 -13.953125 L 5.078125 -12.265625 Z M 6.625 -12.265625 L 6.625 -13.953125 L 8.453125 -13.953125 L 8.453125 -12.265625 Z M 5.84375 0.171875 C 4.320312 0.171875 3.113281 -0.195312 2.21875 -0.9375 C 1.332031 -1.675781 0.890625 -2.75 0.890625 -4.15625 L 0.890625 -11.078125 L 3.21875 -11.078125 L 3.21875 -4.328125 C 3.21875 -3.484375 3.445312 -2.851562 3.90625 -2.4375 C 4.363281 -2.019531 5.007812 -1.8125 5.84375 -1.8125 C 6.6875 -1.8125 7.332031 -2.019531 7.78125 -2.4375 C 8.238281 -2.851562 8.46875 -3.484375 8.46875 -4.328125 L 8.46875 -11.078125 L 10.78125 -11.078125 L 10.78125 -4.15625 C 10.78125 -2.75 10.335938 -1.675781 9.453125 -0.9375 C 8.578125 -0.195312 7.375 0.171875 5.84375 0.171875 Z M 5.84375 0.171875 "/></g></g></g><g fill="#ec6521" fill-opacity="1"><g transform="translate(133.679815, 220.120987)"><g><path d="M 0.984375 0 L 0.984375 -11.078125 L 3.296875 -11.078125 L 3.296875 -1.796875 L 8.75 -1.796875 L 8.75 0 Z M 0.984375 0 "/></g></g></g><g fill="#ec6521" fill-opacity="1"><g transform="translate(142.722467, 220.120987)"><g><path d="M 0.984375 0 L 0.984375 -11.078125 L 8.921875 -11.078125 L 8.921875 -9.265625 L 3.296875 -9.265625 L 3.296875 -6.4375 L 8.296875 -6.4375 L 8.296875 -4.640625 L 3.296875 -4.640625 L 3.296875 -1.796875 L 8.921875 -1.796875 L 8.921875 0 Z M 0.984375 0 "/></g></g></g><g fill="#ec6521" fill-opacity="1"><g transform="translate(152.280858, 220.120987)"><g><path d="M 0.984375 0 L 0.984375 -11.078125 L 6.296875 -11.078125 C 7.566406 -11.078125 8.5 -10.738281 9.09375 -10.0625 C 9.695312 -9.394531 10 -8.492188 10 -7.359375 C 10 -6.617188 9.804688 -5.976562 9.421875 -5.4375 C 9.035156 -4.894531 8.492188 -4.503906 7.796875 -4.265625 C 7.972656 -4.117188 8.113281 -3.957031 8.21875 -3.78125 C 8.332031 -3.613281 8.445312 -3.382812 8.5625 -3.09375 L 9.90625 0 L 7.5 0 L 6.1875 -2.96875 C 6.070312 -3.226562 5.945312 -3.410156 5.8125 -3.515625 C 5.675781 -3.617188 5.445312 -3.671875 5.125 -3.671875 L 3.296875 -3.671875 L 3.296875 0 Z M 3.296875 -5.59375 L 5.6875 -5.59375 C 6.300781 -5.59375 6.78125 -5.726562 7.125 -6 C 7.46875 -6.269531 7.640625 -6.722656 7.640625 -7.359375 C 7.640625 -7.984375 7.488281 -8.4375 7.1875 -8.71875 C 6.894531 -9.007812 6.441406 -9.15625 5.828125 -9.15625 L 3.296875 -9.15625 Z M 3.296875 -5.59375 "/></g></g></g><g fill="#ec6521" fill-opacity="1"><g transform="translate(162.905117, 220.120987)"><g/></g></g><g fill="#ec6521" fill-opacity="1"><g transform="translate(166.687217, 220.120987)"><g><path d="M 0.984375 0 L 0.984375 -11.078125 L 3.296875 -11.078125 L 3.296875 -6.4375 L 8.140625 -6.4375 L 8.140625 -11.078125 L 10.453125 -11.078125 L 10.453125 0 L 8.140625 0 L 8.140625 -4.640625 L 3.296875 -4.640625 L 3.296875 0 Z M 0.984375 0 "/></g></g></g><g fill="#ec6521" fill-opacity="1"><g transform="translate(178.119464, 220.120987)"><g><path d="M 0.984375 0 L 0.984375 -11.078125 L 8.921875 -11.078125 L 8.921875 -9.265625 L 3.296875 -9.265625 L 3.296875 -6.4375 L 8.296875 -6.4375 L 8.296875 -4.640625 L 3.296875 -4.640625 L 3.296875 -1.796875 L 8.921875 -1.796875 L 8.921875 0 Z M 0.984375 0 "/></g></g></g><g fill="#ec6521" fill-opacity="1"><g transform="translate(187.677855, 220.120987)"><g><path d="M 0.984375 0 L 0.984375 -11.078125 L 3.296875 -11.078125 L 3.296875 -1.796875 L 8.75 -1.796875 L 8.75 0 Z M 0.984375 0 "/></g></g></g><g fill="#ec6521" fill-opacity="1"><g transform="translate(196.720506, 220.120987)"><g><path d="M 0.984375 0 L 0.984375 -11.078125 L 8.78125 -11.078125 L 8.78125 -9.265625 L 3.296875 -9.265625 L 3.296875 -6.4375 L 8.140625 -6.4375 L 8.140625 -4.640625 L 3.296875 -4.640625 L 3.296875 0 Z M 0.984375 0 "/></g></g></g><g fill="#ec6521" fill-opacity="1"><g transform="translate(205.780347, 220.120987)"><g><path d="M 0.984375 0 L 0.984375 -11.078125 L 8.921875 -11.078125 L 8.921875 -9.265625 L 3.296875 -9.265625 L 3.296875 -6.4375 L 8.296875 -6.4375 L 8.296875 -4.640625 L 3.296875 -4.640625 L 3.296875 -1.796875 L 8.921875 -1.796875 L 8.921875 0 Z M 0.984375 0 "/></g></g></g><g fill="#ec6521" fill-opacity="1"><g transform="translate(215.338738, 220.120987)"><g><path d="M 0.984375 0 L 0.984375 -11.078125 L 3 -11.078125 L 8.234375 -3.703125 L 8.234375 -11.078125 L 10.5625 -11.078125 L 10.5625 0 L 8.546875 0 L 3.296875 -7.375 L 3.296875 0 Z M 0.984375 0 "/></g></g></g><g fill="#ec6521" fill-opacity="1"><g transform="translate(226.87413, 220.120987)"><g/></g></g><g fill="#ec6521" fill-opacity="1"><g transform="translate(230.65623, 220.120987)"><g><path d="M 4.421875 0.171875 C 3.710938 0.171875 3.050781 0.117188 2.4375 0.015625 C 1.820312 -0.0859375 1.289062 -0.238281 0.84375 -0.4375 L 0.84375 -2.484375 C 1.34375 -2.273438 1.882812 -2.109375 2.46875 -1.984375 C 3.0625 -1.859375 3.640625 -1.796875 4.203125 -1.796875 C 5.003906 -1.796875 5.59375 -1.867188 5.96875 -2.015625 C 6.34375 -2.160156 6.53125 -2.5 6.53125 -3.03125 C 6.53125 -3.363281 6.453125 -3.625 6.296875 -3.8125 C 6.140625 -4.007812 5.863281 -4.1875 5.46875 -4.34375 C 5.070312 -4.5 4.507812 -4.675781 3.78125 -4.875 C 2.625 -5.1875 1.8125 -5.582031 1.34375 -6.0625 C 0.875 -6.550781 0.640625 -7.21875 0.640625 -8.0625 C 0.640625 -9.082031 1.007812 -9.867188 1.75 -10.421875 C 2.5 -10.972656 3.582031 -11.25 5 -11.25 C 5.664062 -11.25 6.285156 -11.203125 6.859375 -11.109375 C 7.429688 -11.015625 7.894531 -10.90625 8.25 -10.78125 L 8.25 -8.734375 C 7.3125 -9.085938 6.332031 -9.265625 5.3125 -9.265625 C 4.59375 -9.265625 4.023438 -9.1875 3.609375 -9.03125 C 3.203125 -8.882812 3 -8.5625 3 -8.0625 C 3 -7.78125 3.070312 -7.550781 3.21875 -7.375 C 3.363281 -7.207031 3.617188 -7.050781 3.984375 -6.90625 C 4.347656 -6.769531 4.851562 -6.617188 5.5 -6.453125 C 6.40625 -6.210938 7.101562 -5.925781 7.59375 -5.59375 C 8.09375 -5.257812 8.4375 -4.878906 8.625 -4.453125 C 8.8125 -4.023438 8.90625 -3.550781 8.90625 -3.03125 C 8.90625 -2.0625 8.535156 -1.285156 7.796875 -0.703125 C 7.066406 -0.117188 5.941406 0.171875 4.421875 0.171875 Z M 4.421875 0.171875 "/></g></g></g><g fill="#ec6521" fill-opacity="1"><g transform="translate(240.197432, 220.120987)"><g><path d="M 6.375 0.171875 C 4.519531 0.171875 3.097656 -0.328125 2.109375 -1.328125 C 1.128906 -2.335938 0.640625 -3.707031 0.640625 -5.4375 C 0.640625 -7.269531 1.117188 -8.695312 2.078125 -9.71875 C 3.035156 -10.738281 4.460938 -11.25 6.359375 -11.25 C 7.023438 -11.25 7.625 -11.195312 8.15625 -11.09375 C 8.695312 -11 9.203125 -10.867188 9.671875 -10.703125 L 9.671875 -8.671875 C 8.691406 -9.066406 7.644531 -9.265625 6.53125 -9.265625 C 5.269531 -9.265625 4.363281 -8.945312 3.8125 -8.3125 C 3.269531 -7.6875 3 -6.726562 3 -5.4375 C 3 -3.007812 4.191406 -1.796875 6.578125 -1.796875 C 7.109375 -1.796875 7.640625 -1.84375 8.171875 -1.9375 C 8.703125 -2.03125 9.207031 -2.175781 9.6875 -2.375 L 9.6875 -0.328125 C 9.21875 -0.179688 8.710938 -0.0625 8.171875 0.03125 C 7.640625 0.125 7.039062 0.171875 6.375 0.171875 Z M 6.375 0.171875 "/></g></g></g><g fill="#ec6521" fill-opacity="1"><g transform="translate(250.512243, 220.120987)"><g><path d="M 0.984375 0 L 0.984375 -11.078125 L 3.296875 -11.078125 L 3.296875 -6.4375 L 8.140625 -6.4375 L 8.140625 -11.078125 L 10.453125 -11.078125 L 10.453125 0 L 8.140625 0 L 8.140625 -4.640625 L 3.296875 -4.640625 L 3.296875 0 Z M 0.984375 0 "/></g></g></g><g fill="#ec6521" fill-opacity="1"><g transform="translate(261.94449, 220.120987)"><g><path d="M 3.25 -12.265625 L 3.25 -13.953125 L 5.078125 -13.953125 L 5.078125 -12.265625 Z M 6.625 -12.265625 L 6.625 -13.953125 L 8.453125 -13.953125 L 8.453125 -12.265625 Z M 5.84375 0.171875 C 4.320312 0.171875 3.113281 -0.195312 2.21875 -0.9375 C 1.332031 -1.675781 0.890625 -2.75 0.890625 -4.15625 L 0.890625 -11.078125 L 3.21875 -11.078125 L 3.21875 -4.328125 C 3.21875 -3.484375 3.445312 -2.851562 3.90625 -2.4375 C 4.363281 -2.019531 5.007812 -1.8125 5.84375 -1.8125 C 6.6875 -1.8125 7.332031 -2.019531 7.78125 -2.4375 C 8.238281 -2.851562 8.46875 -3.484375 8.46875 -4.328125 L 8.46875 -11.078125 L 10.78125 -11.078125 L 10.78125 -4.15625 C 10.78125 -2.75 10.335938 -1.675781 9.453125 -0.9375 C 8.578125 -0.195312 7.375 0.171875 5.84375 0.171875 Z M 5.84375 0.171875 "/></g></g></g><g fill="#ec6521" fill-opacity="1"><g transform="translate(273.617417, 220.120987)"><g><path d="M 0.984375 0 L 0.984375 -11.078125 L 3.296875 -11.078125 L 3.296875 -1.796875 L 8.75 -1.796875 L 8.75 0 Z M 0.984375 0 "/></g></g></g><g fill="#ec6521" fill-opacity="1"><g transform="translate(282.660068, 220.120987)"><g><path d="M 0.984375 0 L 0.984375 -11.078125 L 8.921875 -11.078125 L 8.921875 -9.265625 L 3.296875 -9.265625 L 3.296875 -6.4375 L 8.296875 -6.4375 L 8.296875 -4.640625 L 3.296875 -4.640625 L 3.296875 -1.796875 L 8.921875 -1.796875 L 8.921875 0 Z M 0.984375 0 "/></g></g></g><g fill="#ec6521" fill-opacity="1"><g transform="translate(292.218448, 220.120987)"><g><path d="M 0.984375 0 L 0.984375 -11.078125 L 6.296875 -11.078125 C 7.566406 -11.078125 8.5 -10.738281 9.09375 -10.0625 C 9.695312 -9.394531 10 -8.492188 10 -7.359375 C 10 -6.617188 9.804688 -5.976562 9.421875 -5.4375 C 9.035156 -4.894531 8.492188 -4.503906 7.796875 -4.265625 C 7.972656 -4.117188 8.113281 -3.957031 8.21875 -3.78125 C 8.332031 -3.613281 8.445312 -3.382812 8.5625 -3.09375 L 9.90625 0 L 7.5 0 L 6.1875 -2.96875 C 6.070312 -3.226562 5.945312 -3.410156 5.8125 -3.515625 C 5.675781 -3.617188 5.445312 -3.671875 5.125 -3.671875 L 3.296875 -3.671875 L 3.296875 0 Z M 3.296875 -5.59375 L 5.6875 -5.59375 C 6.300781 -5.59375 6.78125 -5.726562 7.125 -6 C 7.46875 -6.269531 7.640625 -6.722656 7.640625 -7.359375 C 7.640625 -7.984375 7.488281 -8.4375 7.1875 -8.71875 C 6.894531 -9.007812 6.441406 -9.15625 5.828125 -9.15625 L 3.296875 -9.15625 Z M 3.296875 -5.59375 "/></g></g></g><g fill="#ec6521" fill-opacity="1"><g transform="translate(302.842707, 220.120987)"><g><path d="M 0.984375 0 L 0.984375 -11.078125 L 3 -11.078125 L 8.234375 -3.703125 L 8.234375 -11.078125 L 10.5625 -11.078125 L 10.5625 0 L 8.546875 0 L 3.296875 -7.375 L 3.296875 0 Z M 0.984375 0 "/></g></g></g><g fill="#ec6521" fill-opacity="1"><g transform="translate(159.40202, 127.908374)"><g><path d="M 1.15625 -0.421875 L -5.015625 -17.03125 L 3.625 -20.25 C 4.976562 -20.75 6.179688 -20.910156 7.234375 -20.734375 C 8.296875 -20.554688 9.207031 -20.109375 9.96875 -19.390625 C 10.726562 -18.671875 11.328125 -17.722656 11.765625 -16.546875 C 12.179688 -15.421875 12.265625 -14.328125 12.015625 -13.265625 C 11.773438 -12.210938 11.273438 -11.289062 10.515625 -10.5 C 10.765625 -10.414062 10.992188 -10.289062 11.203125 -10.125 C 11.421875 -9.957031 11.6875 -9.722656 12 -9.421875 L 15.53125 -5.765625 L 10.46875 -3.890625 L 7.234375 -7.234375 C 6.984375 -7.492188 6.734375 -7.648438 6.484375 -7.703125 C 6.242188 -7.753906 5.941406 -7.710938 5.578125 -7.578125 L 4.203125 -7.078125 L 6 -2.234375 Z M 2.8125 -10.796875 L 5.375 -11.75 C 6.082031 -12.007812 6.5625 -12.394531 6.8125 -12.90625 C 7.0625 -13.414062 7.0625 -14.015625 6.8125 -14.703125 C 6.257812 -16.171875 5.296875 -16.648438 3.921875 -16.140625 L 1.203125 -15.140625 Z M 2.8125 -10.796875 "/></g></g></g><g fill="#ec6521" fill-opacity="1"><g transform="translate(173.722886, 122.192934)"><g><path d="M 9.703125 -0.8125 C 6.796875 -0.476562 4.488281 -0.9375 2.78125 -2.1875 C 1.082031 -3.4375 0.0546875 -5.648438 -0.296875 -8.828125 C -0.546875 -11.015625 -0.398438 -12.816406 0.140625 -14.234375 C 0.679688 -15.648438 1.585938 -16.738281 2.859375 -17.5 C 4.128906 -18.269531 5.726562 -18.765625 7.65625 -18.984375 C 9.59375 -19.203125 11.265625 -19.078125 12.671875 -18.609375 C 14.078125 -18.148438 15.203125 -17.289062 16.046875 -16.03125 C 16.890625 -14.769531 17.4375 -13.046875 17.6875 -10.859375 C 18.039062 -7.679688 17.519531 -5.289062 16.125 -3.6875 C 14.738281 -2.09375 12.597656 -1.132812 9.703125 -0.8125 Z M 9.203125 -5.1875 C 10.515625 -5.332031 11.425781 -5.804688 11.9375 -6.609375 C 12.457031 -7.421875 12.628906 -8.640625 12.453125 -10.265625 C 12.253906 -11.992188 11.8125 -13.179688 11.125 -13.828125 C 10.445312 -14.484375 9.453125 -14.738281 8.140625 -14.59375 C 6.835938 -14.445312 5.929688 -13.976562 5.421875 -13.1875 C 4.910156 -12.40625 4.753906 -11.148438 4.953125 -9.421875 C 5.128906 -7.796875 5.554688 -6.644531 6.234375 -5.96875 C 6.910156 -5.300781 7.898438 -5.039062 9.203125 -5.1875 Z M 9.203125 -5.1875 "/></g></g></g><g fill="#ec6521" fill-opacity="1"><g transform="translate(190.925258, 120.018897)"><g><path d="M 1.21875 0.171875 L 3.671875 -17.375 L 8.796875 -16.65625 L 7.9375 -10.46875 L 14.125 -15.90625 L 19.953125 -15.09375 L 12.765625 -8.78125 L 17.9375 2.515625 L 12.484375 1.75 L 9.15625 -5.953125 L 7.046875 -4.1875 L 6.34375 0.890625 Z M 1.21875 0.171875 "/></g></g></g><g fill="#ec6521" fill-opacity="1"><g transform="translate(207.468601, 122.017698)"><g><path d="M 8.890625 3.96875 C 6.179688 2.851562 4.382812 1.335938 3.5 -0.578125 C 2.613281 -2.492188 2.78125 -4.925781 4 -7.875 C 4.832031 -9.914062 5.828125 -11.425781 6.984375 -12.40625 C 8.148438 -13.382812 9.472656 -13.898438 10.953125 -13.953125 C 12.429688 -14.015625 14.066406 -13.675781 15.859375 -12.9375 C 17.660156 -12.1875 19.066406 -11.269531 20.078125 -10.1875 C 21.085938 -9.113281 21.65625 -7.820312 21.78125 -6.3125 C 21.914062 -4.800781 21.566406 -3.023438 20.734375 -0.984375 C 19.515625 1.960938 17.910156 3.800781 15.921875 4.53125 C 13.929688 5.269531 11.585938 5.082031 8.890625 3.96875 Z M 10.578125 -0.109375 C 11.796875 0.398438 12.820312 0.425781 13.65625 -0.03125 C 14.5 -0.5 15.234375 -1.488281 15.859375 -3 C 16.515625 -4.613281 16.703125 -5.863281 16.421875 -6.75 C 16.140625 -7.644531 15.390625 -8.347656 14.171875 -8.859375 C 12.960938 -9.359375 11.941406 -9.390625 11.109375 -8.953125 C 10.273438 -8.515625 9.53125 -7.488281 8.875 -5.875 C 8.25 -4.363281 8.070312 -3.148438 8.34375 -2.234375 C 8.625 -1.316406 9.367188 -0.609375 10.578125 -0.109375 Z M 10.578125 -0.109375 "/></g></g></g></svg>